<svg width="54" height="54" viewBox="0 0 54 54" fill="none" xmlns="http://www.w3.org/2000/svg">
<mask id="mask0_17111_7480" style="mask-type:alpha" maskUnits="userSpaceOnUse" x="0" y="0" width="54" height="54">
<rect x="0.521484" y="0.777344" width="53.2476" height="52.7713" rx="26.3857" fill="white"/>
</mask>
<g mask="url(#mask0_17111_7480)">
<circle cx="27" cy="27" r="27" fill="#EBEBEB"/>
<mask id="mask1_17111_7480" style="mask-type:alpha" maskUnits="userSpaceOnUse" x="0" y="0" width="54" height="54">
<circle cx="27" cy="27" r="27" fill="#EE1472"/>
</mask>
<g mask="url(#mask1_17111_7480)">
<path d="M47.7689 47.7688C47.7689 54.0776 38.4702 59.1919 26.9997 59.1919C15.5292 59.1919 6.23047 54.0776 6.23047 47.7688C6.23047 41.46 15.5292 36.3457 26.9997 36.3457C38.4702 36.3457 47.7689 41.46 47.7689 47.7688Z" fill="#EE1472"/>
<path d="M26.9998 32.9694C33.8428 32.9694 39.3914 27.4513 39.4551 20.625L14.5458 20.625C14.5621 21.5388 14.6777 22.4482 14.8906 23.337C16.1753 28.8509 21.094 32.9694 26.9998 32.9694Z" fill="#FFBFA6"/>
<path d="M14.9656 17.4462C14.9989 17.3174 15.0445 17.1928 15.0805 17.0655C16.5798 11.8686 21.3213 8.04492 27.0015 8.04492C33.4499 8.04492 38.6843 12.9622 39.3267 19.2375C39.3405 19.3635 39.3626 19.4881 39.3723 19.6155C39.3931 19.9159 39.4609 20.2011 39.4609 20.5056C39.4609 20.5458 39.4554 20.5845 39.4554 20.6233L14.5462 20.6233C14.5448 20.5832 14.5379 20.5458 14.5379 20.507C14.5464 19.5534 14.6649 18.6039 14.8909 17.6774C14.9089 17.5971 14.9449 17.5251 14.9656 17.4462Z" fill="#14151A"/>
</g>
</g>
</svg>
