<svg width="63" height="30" viewBox="0 0 63 30" fill="none" xmlns="http://www.w3.org/2000/svg">
<g clip-path="url(#clip0_19521_12507)">
<path d="M38.2898 21.1598L43.6782 13.7306V15.843L38.5225 8.62866H41.8164L45.3788 13.659L44.0004 13.6769L47.5091 8.62866H50.6598L45.54 15.7177V13.6411L50.9642 21.1598H47.6166L43.9288 15.843H45.2535L41.6195 21.1598H38.2898ZM55.4504 21.1598V10.9917H51.4404V8.62866H62.3604V10.9917H58.3504V21.1598H55.4504Z" fill="#EE1472"/>
<path d="M0.893416 22.341L22.4488 0.785556C22.937 0.297367 23.7285 0.297367 24.2167 0.785556L28.8113 5.38014C29.2995 5.86832 29.2995 6.65984 28.8113 7.14802L7.25588 28.7034C6.7677 29.1916 5.97618 29.1916 5.48799 28.7034L0.893415 24.1089C0.405225 23.6207 0.405227 22.8291 0.893416 22.341Z" fill="#EE1472"/>
<path d="M9.37548 13.8634L13.9701 9.26877C14.4582 8.78058 15.2498 8.78058 15.7379 9.26877L28.8158 22.3466C29.304 22.8348 29.304 23.6263 28.8158 24.1145L24.2212 28.7091C23.733 29.1973 22.9415 29.1973 22.4533 28.7091L9.37548 15.6312C8.88729 15.1431 8.88729 14.3515 9.37548 13.8634Z" fill="#EE1472"/>
<path d="M0.887809 5.38014L5.48239 0.785556C5.97058 0.297367 6.76209 0.297367 7.25028 0.785556L11.8449 5.38014C12.333 5.86832 12.333 6.65984 11.8449 7.14802L7.25028 11.7426C6.76209 12.2308 5.97058 12.2308 5.48239 11.7426L0.887809 7.14802C0.39962 6.65984 0.39962 5.86832 0.887809 5.38014Z" fill="#EE1472"/>
</g>
<defs>
<clipPath id="clip0_19521_12507">
<rect width="63" height="30" fill="white"/>
</clipPath>
</defs>
</svg>
