<svg width="101" height="29" viewBox="0 0 101 29" fill="none" xmlns="http://www.w3.org/2000/svg">
<path fill-rule="evenodd" clip-rule="evenodd" d="M28.432 14.4836C28.432 22.172 22.1841 28.4047 14.4768 28.4047C6.76948 28.4047 0.521484 22.172 0.521484 14.4836C0.521484 6.7952 6.76948 0.5625 14.4768 0.5625C22.1841 0.5625 28.432 6.7952 28.432 14.4836ZM26.3655 14.4837C26.3655 21.0331 21.0431 26.3425 14.4777 26.3425C7.91221 26.3425 2.58984 21.0331 2.58984 14.4837C2.58984 7.93433 7.91221 2.625 14.4777 2.625C21.0431 2.625 26.3655 7.93433 26.3655 14.4837ZM17.6798 8.14393C18.0206 8.41158 18.0749 8.90705 17.8001 9.24214L9.09825 19.8541L8.4873 20.5992C8.20148 20.9478 7.6831 20.9886 7.34623 20.6891C7.02724 20.4054 6.98971 19.9203 7.26129 19.591L12.0193 13.8216L8.58592 9.67518C8.02929 9.00295 8.5074 7.98633 9.38017 7.98633H10.8464C11.1151 7.98633 11.3699 8.10615 11.5413 8.31317L14.0568 11.351L16.6059 8.26007C16.873 7.93623 17.3497 7.88467 17.6798 8.14393ZM13.233 19.8541L15.1145 17.5597L17.5901 20.5494C17.7615 20.7564 18.0163 20.8762 18.285 20.8762H19.7512C20.624 20.8762 21.1021 19.8596 20.5455 19.1874L17.1462 15.082L21.9349 9.24214C22.2097 8.90705 22.1554 8.41158 21.8146 8.14393C21.4844 7.88467 21.0077 7.93623 20.7407 8.26007L11.3961 19.591C11.1245 19.9203 11.162 20.4054 11.481 20.6891C11.8179 20.9886 12.3362 20.9478 12.6221 20.5992L13.233 19.8541Z" fill="#FEBE40"/>
<path fill-rule="evenodd" clip-rule="evenodd" d="M34.9441 8.45117H31.2227L36.1071 14.4837L31.2228 20.5161H34.9442L37.9678 16.7818L40.9914 20.5161H44.7128L39.8285 14.4837L44.7129 8.45117H40.9915L37.9678 12.1857L34.9441 8.45117Z" fill="white"/>
<path fill-rule="evenodd" clip-rule="evenodd" d="M48.8984 11.2354H43.3887L45.643 8.45117H56.3421V11.2354H51.6895V20.5166H48.8984V11.2354Z" fill="white"/>
<path fill-rule="evenodd" clip-rule="evenodd" d="M58.668 14.4837C58.668 11.152 61.3688 8.45117 64.7005 8.45117H68.9018V11.2354H64.7073C62.9133 11.2354 61.459 12.6897 61.459 14.4837C61.459 16.2776 62.9133 17.7319 64.7073 17.7319H68.9018V20.5161H64.7005C61.3688 20.5161 58.668 17.8153 58.668 14.4837Z" fill="white"/>
<path fill-rule="evenodd" clip-rule="evenodd" d="M76.3442 20.5161C79.684 20.5161 82.3915 17.8153 82.3915 14.4837C82.3915 11.152 79.684 8.45117 76.3442 8.45117C73.0043 8.45117 70.2969 11.152 70.2969 14.4837C70.2969 17.8153 73.0043 20.5161 76.3442 20.5161ZM76.3438 17.7309C77.8852 17.7309 79.1348 16.2766 79.1348 14.4826C79.1348 12.6887 77.8852 11.2344 76.3438 11.2344C74.8023 11.2344 73.5527 12.6887 73.5527 14.4826C73.5527 16.2766 74.8023 17.7309 76.3438 17.7309Z" fill="white"/>
<path fill-rule="evenodd" clip-rule="evenodd" d="M84.7188 8.45117H86.5801H87.5098H91.2305H94.0215H95.895C98.4578 8.45117 100.535 10.5287 100.535 13.0915V20.5161H97.7443V12.9755C97.7443 12.0145 96.9652 11.2354 96.0042 11.2354H94.0215V20.5161H91.2305V11.2354H87.5098V20.5161H84.7188V8.45117Z" fill="white"/>
<ellipse cx="54.9463" cy="18.1968" rx="1.39553" ry="1.39211" fill="#FEBE40"/>
</svg>
