<svg width="44" height="44" viewBox="0 0 44 44" fill="none" xmlns="http://www.w3.org/2000/svg">
<path d="M11 7.33335H7.33337V3.66669H36.6667V7.33335H33V11C33 13.9616 31.5037 16.3436 29.6196 18.2906C28.3309 19.6222 26.763 20.8487 25.1734 22C26.763 23.1514 28.3309 24.3779 29.6196 25.7094C31.5037 27.6564 33 30.0385 33 33V36.6667H36.6667V40.3334H7.33337V36.6667H11V33C11 30.0385 12.4963 27.6564 14.3805 25.7094C15.6692 24.3779 17.2371 23.1514 18.8267 22C17.2371 20.8487 15.6692 19.6222 14.3805 18.2906C12.4963 16.3436 11 13.9616 11 11V7.33335ZM14.6667 7.33335V11C14.6667 12.6217 15.4621 14.1356 17.0154 15.7407C18.348 17.1178 20.0838 18.4063 22 19.7599C23.9162 18.4063 25.652 17.1178 26.9847 15.7407C28.5381 14.1356 29.3334 12.6217 29.3334 11V7.33335H14.6667ZM22 24.2402C20.0838 25.5937 18.348 26.8822 17.0154 28.2594C15.4621 29.8645 14.6667 31.3783 14.6667 33V36.6667H29.3334V33C29.3334 31.3783 28.5381 29.8645 26.9847 28.2594C25.652 26.8822 23.9162 25.5937 22 24.2402Z" fill="currentColor"/>
</svg>
