<svg width="13" height="13" viewBox="0 0 13 13" fill="none" xmlns="http://www.w3.org/2000/svg">
<g id="&#233;&#147;&#190;&#230;&#142;&#165; (2)&#229;&#164;&#135;&#228;&#187;&#189;">
<path id="&#229;&#189;&#162;&#231;&#138;&#182;" fill-rule="evenodd" clip-rule="evenodd" d="M6.32023 4.13283C6.14392 4.31691 5.88191 4.39136 5.63515 4.3275C5.38839 4.26363 5.1954 4.07141 5.13054 3.82491C5.06568 3.57841 5.13908 3.3161 5.32244 3.13906L6.79508 1.66542C8.17556 0.322293 10.379 0.337514 11.7408 1.69958C13.1026 3.06165 13.1174 5.26512 11.774 6.64533L10.2963 8.12397C10.1197 8.30773 9.8575 8.38168 9.61085 8.31732C9.3642 8.25295 9.17158 8.06034 9.10722 7.81369C9.04286 7.56704 9.11681 7.30486 9.30056 7.12819L10.7792 5.64955C11.5767 4.82006 11.5638 3.50493 10.7501 2.69128C9.93648 1.87764 8.62134 1.86471 7.79186 2.6622L6.32023 4.13283ZM7.288 9.14008C7.56297 8.86483 8.00903 8.86461 8.28428 9.13958C8.55953 9.41456 8.55976 9.86061 8.28478 10.1359L6.79512 11.6245C5.41264 12.9537 3.22075 12.9321 1.86468 11.5761C0.508604 10.22 0.487057 8.02809 1.81621 6.64562L3.30287 5.15796C3.47936 4.97403 3.74145 4.89983 3.98816 4.96394C4.23487 5.02806 4.42768 5.22048 4.49229 5.46706C4.5569 5.71364 4.48322 5.97588 4.29965 6.15274L2.81199 7.6414C2.0145 8.47089 2.02743 9.78602 2.84107 10.5997C3.65472 11.4133 4.96985 11.4262 5.79934 10.6287L7.289 9.14008H7.288ZM4.85195 9.08725C5.09518 9.15242 5.35471 9.08288 5.53277 8.90482H5.53177L9.018 5.41859C9.19606 5.24071 9.2657 4.98135 9.20068 4.7382C9.13566 4.49506 8.94586 4.30508 8.70279 4.23981C8.45971 4.17455 8.20028 4.24392 8.02222 4.4218L4.53599 7.90804C4.35793 8.0861 4.28839 8.34562 4.35356 8.58885C4.41874 8.83209 4.60872 9.02207 4.85195 9.08725Z" fill="#999999"/>
</g>
</svg>
