<svg width="15" height="13" viewBox="0 0 15 13" fill="none" xmlns="http://www.w3.org/2000/svg">
<g id="&#231;&#153;&#189;&#231;&#154;&#174;&#228;&#185;&#166; &#229;&#164;&#135;&#228;&#187;&#189;">
<path id="&#229;&#189;&#162;&#231;&#138;&#182;" fill-rule="evenodd" clip-rule="evenodd" d="M2.79013 11.0155H5.66766C6.54672 11.0155 7.25933 11.7281 7.25933 12.6071C7.25933 12.185 7.42703 11.7801 7.72553 11.4816C8.02402 11.1831 8.42887 11.0155 8.85101 11.0155H11.7285C12.9327 11.0155 13.5341 11.0155 13.9082 10.6413C14.2824 10.2672 14.2824 9.66512 14.2824 8.46162V3.2218C14.2824 2.01767 14.2824 1.41624 13.9082 1.04211C13.5341 0.667969 12.9327 0.667969 11.7285 0.667969H11.0901C9.28452 0.667969 8.38111 0.667969 7.82054 1.22917C7.25933 1.78974 7.25933 2.69316 7.25933 4.49872V4.49871C7.25933 2.69316 7.25933 1.78974 6.69813 1.22917C6.13756 0.667969 5.23415 0.667969 3.42859 0.667969H2.79013C1.586 0.667969 0.98457 0.667969 0.610434 1.04211C0.236298 1.41624 0.236298 2.01767 0.236298 3.2218V8.46162C0.236298 9.66512 0.236298 10.2672 0.610434 10.6413C0.98457 11.0155 1.586 11.0155 2.79013 11.0155ZM3.04567 4.88182C3.04567 4.49395 3.3601 4.17952 3.74797 4.17952H5.85488C6.24275 4.17952 6.55719 4.49395 6.55719 4.88182C6.55719 5.26969 6.24275 5.58412 5.85488 5.58412H3.74797C3.3601 5.58412 3.04567 5.26969 3.04567 4.88182ZM3.04565 7.69156C3.04565 7.87782 3.11965 8.05646 3.25135 8.18817C3.38306 8.31987 3.5617 8.39387 3.74796 8.39387H5.85487C6.24274 8.39387 6.55717 8.07943 6.55717 7.69156C6.55717 7.30369 6.24274 6.98926 5.85487 6.98926H3.74796C3.36009 6.98926 3.04565 7.30369 3.04565 7.69156ZM8.86971 6.08068C8.738 5.94898 8.66401 5.77034 8.66401 5.58408C8.66401 5.19621 8.97844 4.88177 9.36631 4.88177H11.4732C11.8611 4.88177 12.1755 5.19621 12.1755 5.58408C12.1755 5.97195 11.8611 6.28638 11.4732 6.28638H9.36631C9.18005 6.28638 9.00142 6.21239 8.86971 6.08068Z" fill="#999999"/>
</g>
</svg>
