<svg xmlns="http://www.w3.org/2000/svg" fill="none" viewBox="0 0 16 16"><path fill="currentColor" d="m15.808 14.885-2.784-2.778-.001-.002a7.318 7.318 0 0 0 1.734-4.742 7.338 7.338 0 0 0-2.161-5.207A7.354 7.354 0 0 0 7.378 0a7.353 7.353 0 0 0-5.217 2.157A7.337 7.337 0 0 0 0 7.363a7.336 7.336 0 0 0 2.161 5.207 7.355 7.355 0 0 0 5.217 2.157 7.346 7.346 0 0 0 4.717-1.7l.004.003 2.784 2.779a.653.653 0 0 0 .925 0 .652.652 0 0 0 0-.924Zm-8.43-1.417a6.083 6.083 0 0 1-4.325-1.788 6.058 6.058 0 0 1-1.792-4.317c0-1.63.637-3.163 1.792-4.316a6.083 6.083 0 0 1 4.325-1.788c1.634 0 3.17.635 4.326 1.788a6.058 6.058 0 0 1 1.791 4.316c0 1.63-.636 3.164-1.791 4.317a6.083 6.083 0 0 1-4.326 1.788Z" data-follow-fill="#000"/></svg>