<svg width="13" height="12" viewBox="0 0 13 12" fill="none" xmlns="http://www.w3.org/2000/svg">
<path fill-rule="evenodd" clip-rule="evenodd" d="M9.5 5.5C9.5 7.70914 7.70914 9.5 5.5 9.5C3.29086 9.5 1.5 7.70914 1.5 5.5C1.5 3.29086 3.29086 1.5 5.5 1.5C7.70914 1.5 9.5 3.29086 9.5 5.5ZM8.857 9.857C7.92821 10.5737 6.76389 11 5.5 11C2.46243 11 0 8.53757 0 5.5C0 2.46243 2.46243 0 5.5 0C8.53757 0 11 2.46243 11 5.5C11 6.7328 10.5944 7.87087 9.90936 8.78804L12.0607 10.9393L11 12L8.857 9.857Z" fill="currentColor"/>
</svg>
