<svg width="17" height="17" viewBox="0 0 17 17" fill="none" xmlns="http://www.w3.org/2000/svg">
<path d="M2.83331 12.5729C2.55152 12.5729 2.28127 12.461 2.08201 12.2617C1.88275 12.0625 1.77081 11.7922 1.77081 11.5104C1.77081 11.2286 1.88275 10.9584 2.08201 10.7591C2.28127 10.5599 2.55152 10.4479 2.83331 10.4479H4.95831C4.95831 10.1661 5.07025 9.89587 5.26951 9.69662C5.46877 9.49736 5.73902 9.38542 6.02081 9.38542C6.30261 9.38542 6.57286 9.49736 6.77211 9.69662C6.97137 9.89587 7.08331 10.1661 7.08331 10.4479H14.1666C14.4484 10.4479 14.7187 10.5599 14.9179 10.7591C15.1172 10.9584 15.2291 11.2286 15.2291 11.5104C15.2291 11.7922 15.1172 12.0625 14.9179 12.2617C14.7187 12.461 14.4484 12.5729 14.1666 12.5729H7.08331C7.08331 12.8547 6.97137 13.125 6.77211 13.3242C6.57286 13.5235 6.30261 13.6354 6.02081 13.6354C5.73902 13.6354 5.46877 13.5235 5.26951 13.3242C5.07025 13.125 4.95831 12.8547 4.95831 12.5729H2.83331ZM10.625 3.36458C10.8761 3.3645 11.1192 3.45339 11.311 3.61548C11.5029 3.77756 11.6311 4.00236 11.673 4.25H14.1666C14.4484 4.25 14.7187 4.36194 14.9179 4.5612C15.1172 4.76046 15.2291 5.03071 15.2291 5.3125C15.2291 5.59429 15.1172 5.86454 14.9179 6.0638C14.7187 6.26306 14.4484 6.375 14.1666 6.375H11.6875V6.55208C11.6875 6.83388 11.5755 7.10413 11.3763 7.30338C11.177 7.50264 10.9068 7.61458 10.625 7.61458C10.3432 7.61458 10.0729 7.50264 9.87368 7.30338C9.67442 7.10413 9.56248 6.83388 9.56248 6.55208V6.375H2.83331C2.55152 6.375 2.28127 6.26306 2.08201 6.0638C1.88275 5.86454 1.77081 5.59429 1.77081 5.3125C1.77081 5.03071 1.88275 4.76046 2.08201 4.5612C2.28127 4.36194 2.55152 4.25 2.83331 4.25H9.577C9.61886 4.00236 9.74709 3.77756 9.93893 3.61548C10.1308 3.45339 10.3738 3.3645 10.625 3.36458Z" fill="#666666"/>
</svg>
