<svg width="15" height="15" viewBox="0 0 15 15" fill="none" xmlns="http://www.w3.org/2000/svg">
<path id="Union" fill-rule="evenodd" clip-rule="evenodd" d="M11.0746 1.23323L13.0902 1.62093L13.0951 1.62191C13.242 1.65848 13.3789 1.7495 13.4701 1.87777C13.5609 2.00472 13.5892 2.15726 13.5668 2.30062V2.35237L13.5629 2.36409C13.5242 2.51466 13.4341 2.64731 13.308 2.73812L13.3002 2.74398L13.2992 2.743C13.1969 2.8023 13.0863 2.84162 12.9779 2.84163C12.9255 2.84159 12.8832 2.83025 12.8539 2.82308L12.6772 2.7889C12.8591 3.02826 13.0305 3.28115 13.1889 3.55159C13.6672 4.36962 13.9749 5.27639 14.0932 6.21663L14.1293 6.55745C14.193 7.35452 14.1164 8.1581 13.9037 8.9305C13.6704 9.81802 13.2646 10.651 12.7094 11.3817L12.7084 11.3807C12.1351 12.1419 11.4134 12.7795 10.5863 13.2528L10.5854 13.2518C9.8625 13.6756 9.07735 13.9676 8.25138 14.1014C7.86974 14.1643 7.48315 14.1963 7.0961 14.1961C6.67917 14.1961 6.26215 14.1555 5.8461 14.077C5.69814 14.0501 5.56555 13.9671 5.47892 13.8436C5.43662 13.7835 5.40532 13.7143 5.38907 13.6414C5.37694 13.5868 5.37565 13.5312 5.38028 13.4764C5.37588 13.4328 5.37643 13.3887 5.38419 13.3455C5.4065 13.2233 5.47581 13.1141 5.57755 13.0428C5.65843 12.9868 5.7548 12.9566 5.85392 12.9588C5.91576 12.9485 5.97981 12.9468 6.04435 12.9588L6.29435 12.9998C6.70542 13.0574 7.12122 13.0688 7.53458 13.0369C7.68084 13.0234 7.82689 13.0059 7.97208 12.9813C8.67483 12.8623 9.35065 12.6154 9.96427 12.2528H9.97208C10.6849 11.8423 11.2972 11.3071 11.7856 10.6561C12.2587 10.0314 12.6067 9.32035 12.809 8.56331C12.939 8.07415 13.0072 7.57141 13.0141 7.06722C13.0139 6.82776 13.0008 6.58806 12.9721 6.34944C12.8749 5.56222 12.6176 4.80274 12.2172 4.118C11.8361 3.46204 11.3709 2.91996 10.807 2.46273C10.7837 2.44382 10.763 2.42176 10.7426 2.39925C10.633 2.35254 10.5348 2.27975 10.4633 2.1805C10.383 2.06807 10.3545 1.93601 10.3637 1.80843C10.3588 1.76091 10.3589 1.71292 10.3676 1.66585V1.62679C10.4295 1.38782 10.648 1.22086 10.8686 1.22737C10.9359 1.21637 11.0054 1.21683 11.0746 1.23323ZM13.9496 7.06722C13.9448 7.65567 13.8643 8.24268 13.7074 8.81234C13.4775 9.68748 13.0772 10.5089 12.5297 11.2293C11.9646 11.9797 11.2522 12.6075 10.4369 13.0741C9.72376 13.4924 8.9489 13.7792 8.13517 13.911C7.97154 13.9379 7.80698 13.9581 7.642 13.9735C7.83518 13.9582 8.02788 13.9357 8.21915 13.9041C9.01993 13.7744 9.78281 13.4922 10.4858 13.0799L10.4867 13.0789C11.2903 12.6191 11.9923 12.0001 12.5492 11.2606C13.0887 10.5506 13.4837 9.74115 13.7104 8.87874L13.7113 8.87777C13.874 8.28713 13.9532 7.67754 13.9496 7.06722ZM7.44962 0.00764817H7.45157C7.75889 0.0267518 8.00507 0.287341 7.98673 0.600422C7.97877 0.744565 7.91599 0.881493 7.81095 0.981281C7.70595 1.08093 7.56645 1.13595 7.42228 1.13655H7.39396C6.23494 1.08319 5.10676 1.3499 4.11661 1.92073C3.42167 2.33299 2.8189 2.85943 2.33927 3.49886C1.8767 4.11518 1.53569 4.81475 1.33341 5.55843C1.15957 6.20789 1.09771 6.88179 1.15079 7.55062L1.18107 7.83675L1.22501 8.1307C1.34467 8.81315 1.5854 9.46962 1.93595 10.0692H1.93399C1.93834 10.0756 1.94269 10.0817 1.94571 10.0887L2.04239 10.2625C2.27798 10.6639 2.57474 11.0332 2.95353 11.3856L2.99161 11.3934L2.99649 11.3944C3.14305 11.4309 3.28088 11.5222 3.37247 11.6502C3.46367 11.7778 3.49031 11.9312 3.46817 12.0741V12.1258L3.46427 12.1395C3.38339 12.4169 3.13823 12.615 2.87149 12.6151C2.82952 12.615 2.78362 12.6041 2.75235 12.5965L0.737706 12.2098L0.731846 12.2088C0.44702 12.1359 0.242562 11.8747 0.263096 11.5955C0.256196 11.544 0.255996 11.4914 0.268956 11.4393V11.408C0.284692 11.2842 0.361786 11.1672 0.470128 11.0897C0.558811 11.0306 0.661756 10.9987 0.764073 11.0008C0.83378 10.9897 0.905398 10.9897 0.975987 11.0057L1.19571 11.0477C1.10748 10.9118 1.02336 10.7744 0.947667 10.6326C0.473065 9.81781 0.168442 8.91331 0.0531353 7.97737C0.0103646 7.62653 -0.00669431 7.27362 0.00235409 6.92171C0.0101871 6.34148 0.0878921 5.76312 0.237706 5.20003C0.46765 4.32463 0.867804 3.50269 1.41544 2.78206C1.98059 2.03171 2.69287 1.40385 3.50821 0.937336C4.39854 0.423383 5.39103 0.117925 6.42032 0.0330388C6.76 0.000704186 7.10387 -0.00818629 7.44962 0.00764817ZM3.26798 11.9823V12.0203C3.20766 12.227 3.04431 12.3753 2.86173 12.4129C2.86525 12.4132 2.86849 12.4149 2.87149 12.4149C3.03583 12.4148 3.20614 12.2908 3.26798 12.0936V12.0643L3.26993 12.0555C3.27763 12.0139 3.2774 11.9717 3.27189 11.9305C3.27047 11.9477 3.27113 11.9653 3.26798 11.9823ZM7.5629 4.50667C8.39627 4.64262 9.02962 5.12019 9.13517 5.82698L9.14981 5.97737L9.15177 6.03499L9.1547 6.13851H8.16153V6.0389C8.16153 5.92669 8.08305 5.79608 7.89298 5.68831C7.70477 5.58167 7.42031 5.50673 7.05118 5.50667C6.67242 5.5067 6.38819 5.57114 6.20255 5.67171C6.01965 5.77088 5.94083 5.89941 5.94083 6.0389C5.94101 6.16211 6.00927 6.28631 6.17618 6.38655C6.34528 6.48804 6.61002 6.55969 6.97696 6.56819L7.05314 6.56917C7.66215 6.56936 8.18335 6.71604 8.55606 6.98714C8.93163 7.26051 9.15163 7.65868 9.15177 8.14241C9.15171 8.59502 8.97635 8.95836 8.67423 9.22054C8.39328 9.46425 8.00756 9.61456 7.5629 9.67855V10.6991H6.57364V9.67855C5.66574 9.54086 4.9864 9.00257 4.95255 8.20394V8.20198L4.95157 8.14437L4.94962 8.04183H5.94083V8.14241C5.941 8.25449 6.01905 8.38523 6.20939 8.493C6.39787 8.59964 6.68241 8.67363 7.05118 8.67366C7.12951 8.67366 7.20361 8.66813 7.27384 8.66292C7.80882 8.60417 8.1188 8.39737 8.15763 8.11214C8.14696 7.99909 8.0796 7.88679 7.92618 7.79476C7.75688 7.6933 7.49247 7.62075 7.1254 7.61214L6.97306 7.61019C6.3844 7.59765 5.88027 7.44568 5.52189 7.17464C5.16112 6.90168 4.95164 6.5108 4.95157 6.03792C4.95158 6.02088 4.95303 6.00393 4.95353 5.98714C4.95315 5.97354 4.95157 5.95988 4.95157 5.94612C4.9518 5.08769 5.61758 4.59377 6.57364 4.493V3.49886H7.5629V4.50667ZM8.94864 8.10238C8.92252 8.91894 8.28158 9.39447 7.36271 9.50081V9.50374L7.45157 9.493C7.90717 9.4402 8.28316 9.29497 8.54337 9.06917C8.80097 8.8456 8.95151 8.53796 8.95157 8.14241C8.95157 8.12899 8.94903 8.11564 8.94864 8.10238ZM6.47501 0.960773C5.58956 1.03581 4.737 1.2994 3.96622 1.74398C3.26102 2.16236 2.64764 2.69681 2.15958 3.34749C1.68948 3.97391 1.34268 4.68453 1.13712 5.44027C1.00429 5.93633 0.937917 6.44645 0.934971 6.95784C0.94507 6.46833 1.01287 5.98062 1.14005 5.50569L1.22599 5.21956C1.43989 4.55834 1.76112 3.93568 2.17911 3.37874C2.67568 2.71674 3.29946 2.17436 4.01505 1.74984L4.01603 1.74886C4.77335 1.31204 5.60788 1.047 6.47501 0.960773ZM6.71817 5.32503C6.08907 5.37253 5.74064 5.61426 5.74064 5.9471C5.74065 5.96122 5.74219 5.97519 5.74357 5.98909C5.76188 5.77961 5.89512 5.60972 6.10685 5.49495C6.26556 5.40897 6.47176 5.35204 6.71817 5.32503ZM13.3666 2.20882V2.24788C13.3337 2.37566 13.2569 2.48816 13.1498 2.56527C13.0874 2.60145 13.0244 2.62544 12.9643 2.63851C12.9688 2.63886 12.9732 2.64143 12.9779 2.64144C13.0388 2.64142 13.1127 2.61805 13.1947 2.57112C13.2784 2.50935 13.339 2.42226 13.3666 2.3221V2.29085L13.3686 2.28206C13.376 2.24256 13.3754 2.20244 13.3705 2.16292C13.3691 2.17815 13.3694 2.19376 13.3666 2.20882ZM7.7836 0.522297C7.7729 0.634272 7.72387 0.739509 7.642 0.817218C7.57735 0.878498 7.49688 0.919509 7.41056 0.936359H7.4213L7.49064 0.929523C7.55871 0.916279 7.62252 0.884856 7.67325 0.83675C7.741 0.772446 7.78135 0.683467 7.78653 0.589679L7.7836 0.522297Z" fill="currentColor"/>
</svg>
