<svg width="16" height="16" viewBox="0 0 16 16" fill="none" xmlns="http://www.w3.org/2000/svg">
<g id="Icon">
<path id="Vector" d="M6.64687 9.9974H6.70687C7.00687 10.0307 7.24688 10.2841 7.24688 10.5974C7.24688 10.9107 7.01354 11.1641 6.70687 11.1974H5.64687C5.31354 11.1974 5.04688 10.9307 5.04688 10.5974C5.04688 10.2641 5.31354 9.9974 5.64687 9.9974H6.64687ZM7.98021 7.33073H8.04021C8.34021 7.36406 8.58021 7.6174 8.58021 7.93073C8.58021 8.24406 8.34687 8.4974 8.04021 8.53073H5.64687C5.31354 8.53073 5.04688 8.26406 5.04688 7.93073C5.04688 7.5974 5.31354 7.33073 5.64687 7.33073H7.98021ZM10.3135 4.66406H10.3735C10.6735 4.6974 10.9135 4.95073 10.9135 5.26406C10.9135 5.5774 10.6802 5.83073 10.3735 5.86406H5.64687C5.31354 5.86406 5.04688 5.5974 5.04688 5.26406C5.04688 4.93073 5.31354 4.66406 5.64687 4.66406H10.3135Z" fill="currentColor"/>
<path id="Vector_2" d="M13.9135 6.26667C13.9135 6.6 13.6469 6.86667 13.3135 6.86667C12.9802 6.86667 12.7135 6.6 12.7135 6.26667V2.2H3.24688V13.6667H6.37354C6.67354 13.7 6.91354 13.9533 6.91354 14.2667C6.91354 14.58 6.68021 14.8333 6.37354 14.8667H2.98021C2.46688 14.8667 2.04688 14.4467 2.04688 13.9333V1.93333C2.04688 1.42 2.46688 1 2.98021 1H12.9802C13.4935 1 13.9135 1.42 13.9135 1.93333V6.26667Z" fill="currentColor"/>
<path id="Vector_3" d="M14.1802 11.6667C14.1802 10.3067 13.0735 9.2 11.7135 9.2C10.3535 9.2 9.24688 10.3067 9.24688 11.6667C9.24688 13.0267 10.3535 14.1333 11.7135 14.1333V15.3333C9.68687 15.3333 8.04688 13.6933 8.04688 11.6667C8.04688 9.64 9.68687 8 11.7135 8C13.7402 8 15.3802 9.64 15.3802 11.6667C15.3802 13.6933 13.7402 15.3333 11.7135 15.3333V14.1333C13.0735 14.1333 14.1802 13.0267 14.1802 11.6667Z" fill="currentColor"/>
<path id="Vector_4" d="M11.1136 10.4984C11.1136 10.1651 11.3803 9.89844 11.7136 9.89844C12.0469 9.89844 12.3136 10.1651 12.3136 10.4984V11.4518L12.8003 11.9384C13.0336 12.1718 13.0403 12.5518 12.8003 12.7851C12.745 12.8413 12.6792 12.886 12.6065 12.9165C12.5338 12.947 12.4558 12.9627 12.3769 12.9627C12.2981 12.9627 12.2201 12.947 12.1474 12.9165C12.0747 12.886 12.0088 12.8413 11.9536 12.7851L11.3869 12.2251C11.2069 12.0518 11.1069 11.8118 11.1069 11.5651V10.4984H11.1136Z" fill="currentColor"/>
</g>
</svg>
