<svg width="16" height="16" viewBox="0 0 16 16" fill="none" xmlns="http://www.w3.org/2000/svg">
<path d="M13.2935 5.47333C13.5269 5.28 13.8735 5.28667 14.1002 5.5C14.3402 5.73333 14.3469 6.11333 14.1135 6.34667L10.4602 10.1133C10.1602 10.42 9.67354 10.4267 9.36687 10.12L6.01354 6.77333L2.74021 10.02C2.62776 10.132 2.47555 10.1948 2.31687 10.1948C2.1582 10.1948 2.00599 10.132 1.89354 10.02C1.78159 9.90755 1.71873 9.75534 1.71873 9.59667C1.71873 9.43799 1.78159 9.28578 1.89354 9.17333L5.47354 5.62667L5.53354 5.57333C5.81354 5.34667 6.22021 5.34667 6.50021 5.57333L6.56021 5.62667L9.90687 8.96667L13.2602 5.51333L13.3069 5.47333H13.2935ZM14.3135 2H14.3735C14.6735 2.03333 14.9135 2.28667 14.9135 2.6C14.9135 2.91333 14.6802 3.16667 14.3735 3.2H1.64688C1.31354 3.2 1.04688 2.93333 1.04688 2.6C1.04688 2.26667 1.31354 2 1.64688 2H14.3135ZM14.3135 12.6667H14.3735C14.6735 12.7 14.9135 12.9533 14.9135 13.2667C14.9135 13.58 14.6802 13.8333 14.3735 13.8667H1.64688C1.31354 13.8667 1.04688 13.6 1.04688 13.2667C1.04688 12.9333 1.31354 12.6667 1.64688 12.6667H14.3135Z" fill="currentColor"/>
</svg>
