<svg width="20" height="20" viewBox="0 0 20 20" fill="none" xmlns="http://www.w3.org/2000/svg">
<g id="&#230;&#156;&#186;&#229;&#153;&#168;&#228;&#186;&#186; (2) 1">
<path id="Vector" d="M9.99049 1.25C10.6371 1.25 11.1612 1.77416 11.1612 2.42073C11.1612 2.83775 10.9432 3.20383 10.6149 3.41123L10.6149 4.99634H16.2344C16.5792 4.99634 16.8588 5.27589 16.8588 5.62073V16.8598C16.8588 17.2046 16.5792 17.4841 16.2344 17.4841H3.74658C3.40175 17.4841 3.12219 17.2046 3.12219 16.8598V5.62073C3.12219 5.27589 3.40175 4.99634 3.74658 4.99634H9.3661V3.41123C9.04288 3.20707 8.82655 2.84908 8.81991 2.44011L8.81976 2.42073C8.81976 1.77416 9.34391 1.25 9.99049 1.25ZM15.4539 6.40122H4.52707V16.0793H15.4539V6.40122ZM12.332 13.1329C12.3524 13.1329 12.3727 13.137 12.3917 13.1448C12.4106 13.1527 12.4278 13.1642 12.4423 13.1786C12.4568 13.1931 12.4683 13.2103 12.4762 13.2293C12.484 13.2482 12.488 13.2685 12.488 13.289V14.2256C12.488 14.2461 12.484 14.2664 12.4762 14.2853C12.4683 14.3043 12.4568 14.3215 12.4423 14.336C12.4278 14.3505 12.4106 14.362 12.3917 14.3698C12.3727 14.3777 12.3524 14.3817 12.332 14.3817H7.64902C7.62852 14.3817 7.60823 14.3777 7.58929 14.3698C7.57035 14.362 7.55314 14.3505 7.53865 14.336C7.52415 14.3215 7.51265 14.3043 7.50481 14.2853C7.49696 14.2664 7.49293 14.2461 7.49293 14.2256V13.289C7.49293 13.2476 7.50937 13.2079 7.53865 13.1786C7.56792 13.1494 7.60762 13.1329 7.64902 13.1329H12.332ZM2.34171 7.8061C2.38311 7.8061 2.42281 7.82254 2.45208 7.85182C2.48136 7.88109 2.4978 7.9208 2.4978 7.9622V13.8939C2.4978 13.9353 2.48136 13.975 2.45208 14.0043C2.42281 14.0336 2.38311 14.05 2.34171 14.05H1.40512C1.36372 14.05 1.32402 14.0336 1.29474 14.0043C1.26547 13.975 1.24902 13.9353 1.24902 13.8939V7.9622C1.24902 7.9208 1.26547 7.88109 1.29474 7.85182C1.32402 7.82254 1.36372 7.8061 1.40512 7.8061H2.34171ZM18.5759 7.8061C18.5964 7.8061 18.6166 7.81014 18.6356 7.81798C18.6545 7.82582 18.6717 7.83732 18.6862 7.85182C18.7007 7.86631 18.7122 7.88352 18.7201 7.90246C18.7279 7.9214 18.732 7.9417 18.732 7.9622V13.8939C18.732 13.9144 18.7279 13.9347 18.7201 13.9536C18.7122 13.9726 18.7007 13.9898 18.6862 14.0043C18.6717 14.0188 18.6545 14.0303 18.6356 14.0381C18.6166 14.046 18.5964 14.05 18.5759 14.05H17.6393C17.5979 14.05 17.5582 14.0336 17.5289 14.0043C17.4996 13.975 17.4832 13.9353 17.4832 13.8939V7.9622C17.4832 7.9208 17.4996 7.88109 17.5289 7.85182C17.5582 7.82254 17.5979 7.8061 17.6393 7.8061H18.5759ZM6.71244 9.05488C7.31591 9.05488 7.80512 9.54409 7.80512 10.1476C7.80512 10.751 7.31591 11.2402 6.71244 11.2402C6.10896 11.2402 5.61976 10.751 5.61976 10.1476C5.61976 9.54409 6.10896 9.05488 6.71244 9.05488ZM13.2685 9.05488C13.872 9.05488 14.3612 9.54409 14.3612 10.1476C14.3612 10.751 13.872 11.2402 13.2685 11.2402C12.6651 11.2402 12.1759 10.751 12.1759 10.1476C12.1759 9.54409 12.6651 9.05488 13.2685 9.05488Z" fill="currentColor"/>
</g>
</svg>
