<svg width="12" height="12" viewBox="0 0 12 12" fill="none" xmlns="http://www.w3.org/2000/svg">
<path d="M11.4541 10.5205C11.5987 10.5205 11.7376 10.5785 11.8398 10.6807C11.9421 10.783 12 10.9217 12 11.0664C12 11.2111 11.9421 11.3499 11.8398 11.4521C11.7376 11.5543 11.5987 11.6123 11.4541 11.6123H0.545898C0.40135 11.6123 0.262424 11.5543 0.160156 11.4521C0.0578712 11.3499 6.75193e-06 11.2111 0 11.0664C0 10.9217 0.0578652 10.783 0.160156 10.6807C0.262427 10.5785 0.401338 10.5205 0.545898 10.5205H11.4541ZM9.27539 0C9.74132 1.76682e-05 10.188 0.185286 10.5176 0.514648L11.2461 1.24316C11.5755 1.57274 11.7607 2.02038 11.7607 2.48633C11.7606 2.95212 11.5754 3.39904 11.2461 3.72852L5.7793 9.19629C5.72869 9.24687 5.66863 9.28705 5.60254 9.31445C5.59034 9.31951 5.57695 9.32105 5.56445 9.3252C5.48668 9.36723 5.40076 9.40019 5.30566 9.41699L2.90625 9.8418L2.79785 9.85352C2.67999 9.85909 2.56222 9.84034 2.45215 9.79785C2.34204 9.75528 2.24173 9.68987 2.1582 9.60645C2.07473 9.52297 2.00943 9.42258 1.9668 9.3125C1.92417 9.20224 1.90454 9.0839 1.91016 8.96582L1.92285 8.8584L2.34668 6.45898C2.3599 6.38407 2.38286 6.3143 2.41211 6.25C2.43459 6.15709 2.47963 6.07014 2.54688 6L8.0332 0.514648C8.36278 0.185283 8.80945 0 9.27539 0ZM3.05664 8.70703L4.65723 8.4248L3.33984 7.10645L3.05664 8.70703ZM3.93262 6.15527L5.60352 7.82715L9.46582 3.96582L7.79492 2.29492L3.93262 6.15527ZM9.27539 1.09082C9.09868 1.09082 8.92872 1.16123 8.80371 1.28613L8.56641 1.52344L10.2373 3.19531L10.4746 2.95703C10.5995 2.83202 10.6699 2.66207 10.6699 2.48535C10.6699 2.30876 10.5994 2.13959 10.4746 2.01465L9.74609 1.28613C9.62117 1.16132 9.45197 1.09092 9.27539 1.09082Z" fill="currentColor"/>
</svg>
